<?xml version="1.0" encoding="utf-8"?><!DOCTYPE svg PUBLIC "-//W3C//DTD SVG 1.1//EN" "http://www.w3.org/Graphics/SVG/1.1/DTD/svg11.dtd"><svg version="1.1" xmlns="http://www.w3.org/2000/svg" xmlns:xlink="http://www.w3.org/1999/xlink" width="24" height="24" viewBox="0 0 24 24" data-code="57347" data-tags="add_alert"><g fill="#444" transform="scale(0.0234375 0.0234375)"><path d="M682 556v-86h-128v-128h-84v128h-128v86h128v128h84v-128h128zM806 718l90 90v46h-768v-46l90-90v-248c0-138 96-256 226-286v-30c0-38 30-68 68-68s68 30 68 68v30c130 30 226 148 226 286v248zM428 896h168c0 46-38 86-84 86s-84-40-84-86z" /></g></svg>