<?xml version="1.0" encoding="utf-8"?><!DOCTYPE svg PUBLIC "-//W3C//DTD SVG 1.1//EN" "http://www.w3.org/Graphics/SVG/1.1/DTD/svg11.dtd"><svg version="1.1" xmlns="http://www.w3.org/2000/svg" xmlns:xlink="http://www.w3.org/1999/xlink" width="20" height="20" viewBox="0 0 20 20" data-tags="inbox-download"><g fill="#444" transform="scale(0.01953125 0.01953125)"><path d="M0 102.4c0-56.32 46.080-102.4 102.4-102.4h819.2c56.554 0 102.4 45.846 102.4 102.4v0 819.2c0 56.554-45.846 102.4-102.4 102.4v0h-819.2c-56.554 0-102.4-45.846-102.4-102.4v0-819.2zM716.8 716.8h204.8v-614.4h-819.2v614.4h204.8c0 56.32 46.080 102.4 102.4 102.4h204.8c56.554 0 102.4-45.846 102.4-102.4v0zM460.8 409.6v-153.6h102.4v153.6h153.6l-204.8 204.8-204.8-204.8h153.6z" /></g></svg>