<?xml version="1.0" encoding="utf-8"?><!DOCTYPE svg PUBLIC "-//W3C//DTD SVG 1.1//EN" "http://www.w3.org/Graphics/SVG/1.1/DTD/svg11.dtd"><svg version="1.1" xmlns="http://www.w3.org/2000/svg" xmlns:xlink="http://www.w3.org/1999/xlink" width="24" height="24" viewBox="0 0 24 24" data-tags="edit-2"><g fill="#444" transform="scale(0.0234375 0.0234375)"><path d="M695.168 97.835l-576 576c-4.992 4.949-8.96 11.435-11.008 18.944l-64 234.667c-1.963 6.955-2.091 14.763 0 22.443 6.187 22.741 29.653 36.139 52.395 29.952l234.667-64c6.784-1.792 13.44-5.504 18.944-11.008l576-576c15.573-15.573 27.435-33.621 35.413-52.949 8.277-20.011 12.416-41.301 12.416-62.549s-4.139-42.539-12.416-62.549c-7.979-19.285-19.84-37.333-35.413-52.949s-33.621-27.435-52.949-35.413c-20.011-8.32-41.301-12.416-62.549-12.416s-42.539 4.139-62.549 12.416c-19.285 7.979-37.333 19.84-52.949 35.413zM755.499 158.165c7.509-7.509 16.128-13.141 25.259-16.939 9.515-3.925 19.712-5.931 29.909-5.931s20.395 2.005 29.909 5.931c9.131 3.797 17.707 9.387 25.259 16.939s13.141 16.128 16.939 25.259c3.925 9.515 5.888 19.712 5.888 29.909s-2.005 20.395-5.931 29.909c-3.797 9.131-9.387 17.707-16.939 25.259l-567.936 567.979-151.723 41.387 41.387-151.68z" /></g></svg>