<?xml version="1.0" encoding="utf-8"?><!DOCTYPE svg PUBLIC "-//W3C//DTD SVG 1.1//EN" "http://www.w3.org/Graphics/SVG/1.1/DTD/svg11.dtd"><svg version="1.1" xmlns="http://www.w3.org/2000/svg" xmlns:xlink="http://www.w3.org/1999/xlink" width="24" height="24" viewBox="0 0 24 24" data-tags="grid"><g fill="#444" transform="scale(0.0234375 0.0234375)"><path d="M128 85.333c-23.552 0-42.667 19.115-42.667 42.667v298.667c0 23.552 19.115 42.667 42.667 42.667h298.667c23.552 0 42.667-19.115 42.667-42.667v-298.667c0-23.552-19.115-42.667-42.667-42.667zM170.667 170.667h213.333v213.333h-213.333zM597.333 85.333c-23.552 0-42.667 19.115-42.667 42.667v298.667c0 23.552 19.115 42.667 42.667 42.667h298.667c23.552 0 42.667-19.115 42.667-42.667v-298.667c0-23.552-19.115-42.667-42.667-42.667zM640 170.667h213.333v213.333h-213.333zM597.333 554.667c-23.552 0-42.667 19.115-42.667 42.667v298.667c0 23.552 19.115 42.667 42.667 42.667h298.667c23.552 0 42.667-19.115 42.667-42.667v-298.667c0-23.552-19.115-42.667-42.667-42.667zM640 640h213.333v213.333h-213.333zM128 554.667c-23.552 0-42.667 19.115-42.667 42.667v298.667c0 23.552 19.115 42.667 42.667 42.667h298.667c23.552 0 42.667-19.115 42.667-42.667v-298.667c0-23.552-19.115-42.667-42.667-42.667zM170.667 640h213.333v213.333h-213.333z" /></g></svg>