<?xml version="1.0" encoding="utf-8"?><!DOCTYPE svg PUBLIC "-//W3C//DTD SVG 1.1//EN" "http://www.w3.org/Graphics/SVG/1.1/DTD/svg11.dtd"><svg version="1.1" xmlns="http://www.w3.org/2000/svg" xmlns:xlink="http://www.w3.org/1999/xlink" width="24" height="24" viewBox="0 0 24 24" data-code="59663" data-tags="lightbulb_outline"><g fill="#444" transform="scale(0.0234375 0.0234375)"><path d="M634 558c58-40 92-104 92-174 0-118-96-214-214-214s-214 96-214 214c0 70 34 134 92 174l36 26v98h172v-98zM512 86c164 0 298 134 298 298 0 102-50 190-128 244v98c0 24-18 42-42 42h-256c-24 0-42-18-42-42v-98c-78-54-128-142-128-244 0-164 134-298 298-298zM384 896v-42h256v42c0 24-18 42-42 42h-172c-24 0-42-18-42-42z" /></g></svg>