<?xml version="1.0" encoding="utf-8"?><!DOCTYPE svg PUBLIC "-//W3C//DTD SVG 1.1//EN" "http://www.w3.org/Graphics/SVG/1.1/DTD/svg11.dtd"><svg version="1.1" xmlns="http://www.w3.org/2000/svg" xmlns:xlink="http://www.w3.org/1999/xlink" width="24" height="24" viewBox="0 0 24 24" data-code="58378" data-tags="palette"><g fill="#444" transform="scale(0.0234375 0.0234375)"><path d="M746 512c36 0 64-28 64-64s-28-64-64-64-64 28-64 64 28 64 64 64zM618 342c36 0 64-28 64-64s-28-64-64-64-64 28-64 64 28 64 64 64zM406 342c36 0 64-28 64-64s-28-64-64-64-64 28-64 64 28 64 64 64zM278 512c36 0 64-28 64-64s-28-64-64-64-64 28-64 64 28 64 64 64zM512 128c212 0 384 154 384 342 0 118-96 212-214 212h-74c-36 0-64 28-64 64 0 16 6 30 16 42s16 28 16 44c0 36-28 64-64 64-212 0-384-172-384-384s172-384 384-384z" /></g></svg>