<?xml version="1.0" encoding="utf-8"?><!DOCTYPE svg PUBLIC "-//W3C//DTD SVG 1.1//EN" "http://www.w3.org/Graphics/SVG/1.1/DTD/svg11.dtd"><svg version="1.1" xmlns="http://www.w3.org/2000/svg" xmlns:xlink="http://www.w3.org/1999/xlink" width="24" height="24" viewBox="0 0 24 24" data-tags="trash-2"><g fill="#444" transform="scale(0.0234375 0.0234375)"><path d="M768 298.667v554.667c0 5.845-1.152 11.349-3.2 16.299-2.133 5.205-5.333 9.899-9.301 13.867s-8.661 7.125-13.867 9.301c-4.949 2.048-10.453 3.2-16.299 3.2h-426.667c-5.845 0-11.349-1.152-16.299-3.2-5.205-2.133-9.899-5.333-13.867-9.301s-7.125-8.661-9.301-13.867c-2.048-4.949-3.2-10.453-3.2-16.299v-554.667zM725.333 213.333v-42.667c0-17.28-3.456-33.835-9.728-48.981-6.485-15.701-16-29.781-27.776-41.557s-25.856-21.291-41.557-27.776c-15.104-6.229-31.659-9.685-48.939-9.685h-170.667c-17.28 0-33.835 3.456-48.981 9.728-15.659 6.485-29.739 16-41.515 27.776s-21.291 25.856-27.776 41.515c-6.272 15.147-9.728 31.701-9.728 48.981v42.667h-170.667c-23.552 0-42.667 19.115-42.667 42.667s19.115 42.667 42.667 42.667h42.667v554.667c0 17.28 3.456 33.835 9.728 48.981 6.485 15.701 16 29.781 27.776 41.557s25.856 21.291 41.557 27.776c15.104 6.229 31.659 9.685 48.939 9.685h426.667c17.28 0 33.835-3.456 48.981-9.728 15.701-6.485 29.781-16 41.557-27.776s21.291-25.856 27.776-41.557c6.229-15.104 9.685-31.659 9.685-48.939v-554.667h42.667c23.552 0 42.667-19.115 42.667-42.667s-19.115-42.667-42.667-42.667zM384 213.333v-42.667c0-5.845 1.152-11.349 3.2-16.299 2.133-5.205 5.333-9.899 9.301-13.867s8.661-7.125 13.867-9.301c4.949-2.048 10.453-3.2 16.299-3.2h170.667c5.845 0 11.349 1.152 16.299 3.2 5.205 2.133 9.899 5.333 13.867 9.301s7.125 8.661 9.301 13.867c2.048 4.949 3.2 10.453 3.2 16.299v42.667zM384 469.333v256c0 23.552 19.115 42.667 42.667 42.667s42.667-19.115 42.667-42.667v-256c0-23.552-19.115-42.667-42.667-42.667s-42.667 19.115-42.667 42.667zM554.667 469.333v256c0 23.552 19.115 42.667 42.667 42.667s42.667-19.115 42.667-42.667v-256c0-23.552-19.115-42.667-42.667-42.667s-42.667 19.115-42.667 42.667z" /></g></svg>