<?xml version="1.0" encoding="utf-8"?><!DOCTYPE svg PUBLIC "-//W3C//DTD SVG 1.1//EN" "http://www.w3.org/Graphics/SVG/1.1/DTD/svg11.dtd"><svg version="1.1" xmlns="http://www.w3.org/2000/svg" xmlns:xlink="http://www.w3.org/1999/xlink" width="24" height="24" viewBox="0 0 24 24" data-code="57705" data-tags="unarchive"><g fill="#444" transform="scale(0.0234375 0.0234375)"><path d="M218 214h588l-40-44h-512zM512 406l-234 234h148v86h172v-86h148zM876 222c12 14 20 36 20 56v532c0 46-40 86-86 86h-596c-48 0-86-40-86-86v-532c0-20 8-42 20-56l58-70c12-14 30-24 50-24h512c20 0 38 10 50 24z" /></g></svg>