<?xml version="1.0" encoding="utf-8"?><!DOCTYPE svg PUBLIC "-//W3C//DTD SVG 1.1//EN" "http://www.w3.org/Graphics/SVG/1.1/DTD/svg11.dtd"><svg version="1.1" xmlns="http://www.w3.org/2000/svg" xmlns:xlink="http://www.w3.org/1999/xlink" width="24" height="24" viewBox="0 0 24 24" data-code="59475" data-tags="account_circle"><g fill="#444" transform="scale(0.0234375 0.0234375)"><path d="M512 820c106 0 200-56 256-138-2-84-172-132-256-132-86 0-254 48-256 132 56 82 150 138 256 138zM512 214c-70 0-128 58-128 128s58 128 128 128 128-58 128-128-58-128-128-128zM512 86c236 0 426 190 426 426s-190 426-426 426-426-190-426-426 190-426 426-426z" /></g></svg>